<svg xmlns="http://www.w3.org/2000/svg" viewBox="0 0 64 64" width="64" height="64"
     role="img" aria-label="Hudka">
  <title>Hudka</title>
  <!-- The hudka: a waisted hand drum, its two heads held under rope tension. -->
  <g fill="currentColor">
    <path d="M13 11 C13 21 26.5 25 26.5 32 C26.5 39 13 43 13 53
             L51 53 C51 43 37.5 39 37.5 32 C37.5 25 51 21 51 11 Z"/>
  </g>
  <g stroke="var(--hudka-bg, #ffd666)" stroke-width="1.15" stroke-linecap="round" fill="none"
     opacity="0.9">
    <path d="M17.4 13.6 Q32.0 32.0 46.6 50.4"/>
    <path d="M22.3 13.6 Q32.0 32.0 41.7 50.4"/>
    <path d="M27.1 13.6 Q32.0 32.0 36.9 50.4"/>
    <path d="M32.0 13.6 Q32.0 32.0 32.0 50.4"/>
    <path d="M36.9 13.6 Q32.0 32.0 27.1 50.4"/>
    <path d="M41.7 13.6 Q32.0 32.0 22.3 50.4"/>
    <path d="M46.6 13.6 Q32.0 32.0 17.4 50.4"/>
  </g>
  <g fill="currentColor">
    <ellipse cx="32" cy="11" rx="19" ry="4.4"/>
    <ellipse cx="32" cy="53" rx="19" ry="4.4"/>
  </g>
</svg>
